# AST/ASF file generated using VICON BodyLanguage
# -----------------------------------------------
:version 1.10
:name VICON
:units
  mass 1.0
  length 0.45
  angle deg
:documentation
   .ast/.asf automatically generated from VICON data using
   VICON BodyBuilder and BodyLanguage model FoxedUp or BRILLIANT.MOD
:root
   order TX TY TZ RX RY RZ
   axis XYZ
   position 0 0 0  
   orientation 0 -0 0 
:bonedata
  begin
     id 1 
     name lhipjoint
     direction 0.500677 -0.737119 0.453848 
     length 2.34727 
     axis 0 -0 0  XYZ
  end
  begin
     id 2 
     name lfemur
     direction 0.34202 -0.939693 0  
     length 7.53653  
     axis 0 -0 20  XYZ
    dof rx ry rz
    limits (-160.0 20.0)
           (-70.0 70.0)
           (-60.0 70.0)
  end
  begin
     id 3 
     name ltibia
     direction 0.34202 -0.939693 0   
     length 6.85572   
     axis 0 -0 20   XYZ
    dof rx
    limits (-10.0 170.0)
  end
  begin
     id 4 
     name lfoot
     direction 0.155313 -0.426718 0.890949   
     length 2.18324   
     axis -90 -1.13533e-015 20   XYZ
    dof rx rz
    limits (-45.0 90.0)
           (-70.0 20.0)
  end
  begin
     id 5 
     name ltoes
     direction 1.53474e-011 -4.21647e-011 1   
     length 1.06748   
     axis -90 -1.13533e-015 20   XYZ
    dof rx
    limits (-90.0 20.0)
  end
  begin
     id 6 
     name rhipjoint
     direction -0.632471 -0.659587 0.406111   
     length 2.62319  
     axis 0 -0 0  XYZ 
  end
  begin
     id 7 
     name rfemur
     direction -0.34202 -0.939693 0   
     length 7.21735   
     axis 0 -0 -20   XYZ
    dof rx ry rz
    limits (-160.0 20.0)
           (-70.0 70.0)
           (-70.0 60.0)
  end
  begin
     id 8 
     name rtibia
     direction -0.34202 -0.939693 0   
     length 7.02558   
     axis 0 -0 -20   XYZ
    dof rx
    limits (-10.0 170.0)
 end
 begin
     id 9 
     name rfoot
     direction -0.16057 -0.441164 0.882945   
     length 2.10014  
     axis -90 1.13533e-015 -20   XYZ
    dof rx rz
    limits (-45.0 90.0)
           (-20.0 70.0)
  end
  begin
     id 10 
     name rtoes
     direction -1.53553e-011 -4.2192e-011 1   
     length 1.02554   
     axis -90 1.13533e-015 -20   XYZ
    dof rx
    limits (-90.0 20.0)
  end
  begin
     id 11 
     name lowerback
     direction 0.0401429 0.998861 -0.0258085   
     length 1.80848   
     axis 0 -0 0   XYZ
    dof rx ry rz
    limits (-20.0 45.0)
           (-30.0 30.0)
           (-30.0 30.0)
  end
  begin
     id 12 
     name upperback
     direction -0.0130978 0.999914 -0.000352645   
     length 1.8116   
     axis 0 -0 0   XYZ
    dof rx ry rz
    limits (-20.0 45.0)
           (-30.0 30.0)
           (-30.0 30.0)
  end
  begin
     id 13 
     name thorax
     direction -0.0300198 0.999453 0.0138573   
     length 1.81778   
     axis 0 -0 0   XYZ
    dof rx ry rz
    limits (-20.0 45.0)
           (-30.0 30.0)
           (-30.0 30.0)
  end
  begin
     id 14 
     name lowerneck
     direction -0.0401726 0.999191 -0.00173647   
     length 2.10594   
     axis 0 -0 0   XYZ
    dof rx ry rz
    limits (-20.0 45.0)
           (-30.0 30.0)
           (-30.0 30.0)
  end
  begin
     id 15 
     name upperneck
     direction 0.0119835 0.998501 0.0534085   
     length 2.07325   
     axis 0 -0 0   XYZ
    dof rx ry rz
    limits (-20.0 45.0)
           (-30.0 30.0)
           (-30.0 30.0)
  end
  begin
     id 16
     name head
     direction 0.00628309 0.999826 0.0175921  
     length 2.15096  
     axis 0 -0 0   XYZ
    dof rx ry rz
    limits (-20.0 45.0)
           (-30.0 30.0)
           (-30.0 30.0)
  end
  begin
     id 17 
     name lclavicle
     direction 0.895501 0.429681 -0.115981  
     length 4.18092  
     axis 0 -0 0   XYZ
    dof ry rz
    limits (-20.0 10.0)
           (0.0 20.0)
  end
  begin
     id 18 
     name lhumerus
     direction 1 -4.48961e-011 -3.38433e-028   
     length 5.77237   
     axis 180 -30 -90   XYZ
    dof rx ry rz
    limits (-60.0 90.0)
           (-90.0 90.0)
           (-90.0 90.0)
  end
  begin
     id 19
     name lradius
     direction 1 -4.4901e-011 1.11983e-026   
     length 2.91878   
     axis 180 -30 -90   XYZ
    dof rx
    limits (-10.0 170.0)
  end
  begin
     id 20
     name lwrist
     direction 1 -4.48934e-011 1.88176e-026   
     length 1.45939   
     axis -1.23311e-014 90 90   XYZ
    dof ry
    limits (-180.0 0.0)
 end
  begin
     id 21 
     name lhand
     direction 1 -4.4895e-011 3.76352e-026   
     length 1.06566   
     axis -2.40147e-014 90 90   XYZ
    dof rx rz
    limits (-90.0 90.0)
           (-45.0 45.0)
  end
  begin
     id 22 
     name lfingers
     direction 1 -4.49005e-011 7.52705e-026   
     length 0.859162   
     axis -4.80295e-014 90 90   XYZ
    dof rx
    limits (0.0 90.0)
  end
  begin
     id 23
     name lthumb
     direction 0.707107 -6.34885e-011 0.707107   
     length 1.23359   
     axis -90 45 -9.86935e-015   XYZ
    dof rx rz
    limits (-45.0 45.0)
           (-45.0 45.0)
  end
  begin
     id 24 
     name rclavicle
     direction -0.91006 0.40451 -0.0903492   
     length 4.23293  
     axis 0 -0 0   XYZ 
    dof ry rz
    limits (-10.0 20.0)
           (-20.0 0.0)
  end
  begin
     id 25 
     name rhumerus
     direction -1 -4.4897e-011 1.7415e-027  
     length 5.49854   
     axis 180 30 90   XYZ
    dof rx ry rz
    limits (-90.0 60.0)
           (-90.0 90.0)
           (-90.0 90.0)
  end
  begin
     id 26 
     name rradius
     direction -1 -4.48963e-011 1.21259e-026   
     length 3.1186   
     axis 180 30 90   XYZ
    dof rx
    limits (-10.0 170.0)
  end
  begin
     id 27 
     name rwrist
     direction -1 -4.48967e-011 1.88176e-026   
     length 1.5593   
     axis -1.23311e-014 -90 -90   XYZ
    dof ry
    limits (-180.0 0.0)
  end
  begin
     id 28
     name rhand
     direction -1 -4.4895e-011 3.76352e-026   
     length 0.71207   
     axis -2.40147e-014 -90 -90   XYZ
    dof rx rz
    limits (-90.0 90.0)
           (-45.0 45.0)
  end
  begin
     id 29
     name rfingers
     direction -1 -4.49005e-011 7.52705e-026   
     length 0.574089   
     axis -4.80295e-014 -90 -90   XYZ
    dof rx
    limits (0.0 90.0)
  end
  begin
     id 30
     name rthumb
     direction -0.707107 -6.34982e-011 0.707107   
     length 0.824281   
     axis -90 -45 9.86935e-015   XYZ
    dof rx rz
    limits (-45.0 45.0)
           (-45.0 45.0)
  end
:hierarchy
  begin
    root lhipjoint rhipjoint lowerback
    lhipjoint lfemur
    lfemur ltibia
    ltibia lfoot
    lfoot ltoes
    rhipjoint rfemur
    rfemur rtibia
    rtibia rfoot
    rfoot rtoes
    lowerback upperback
    upperback thorax
    thorax lowerneck lclavicle rclavicle
    lowerneck upperneck
    upperneck head
    lclavicle lhumerus
    lhumerus lradius
    lradius lwrist
    lwrist lhand lthumb
    lhand lfingers
    rclavicle rhumerus
    rhumerus rradius
    rradius rwrist
    rwrist rhand rthumb
    rhand rfingers
  end

#!OML:ASF C:\ViconDB\ViconDB\414\Spring2016\042216\male.ASF
:FULLY-SPECIFIED
:DEGREES
210
root -12.9591 17.5217 11.5022 -128.267 87.6657 -130.137
lowerback 1.70594 -2.96145 4.42109
upperback -0.522816 -3.85395 -0.470446
thorax -1.81779 -1.97508 -2.81993
lowerneck -2.57369 2.98265 -3.70956
upperneck -4.25078 4.16527 2.49999
head -1.02131 2.1351 1.38897
rclavicle -2.59849e-014 -7.95139e-015
rhumerus -35.8157 -11.3258 -85.2513
rradius 24.2735
rwrist 34.2913
rhand 11.8165 -20.022
rfingers 7.12502
rthumb 36.8471 -46.1258
lclavicle -2.59849e-014 -7.95139e-015
lhumerus -29.8578 13.7152 85.0718
lradius 34.3044
lwrist -13.6005
lhand -7.69774 12.3498
lfingers 7.12502
lthumb 18.1997 41.5184
rfemur -20.4358 -5.22207 22.1788
rtibia 44.6491
rfoot -12.3557 -11.7224
rtoes -23.5112
lfemur -3.60532 -1.0938 -20.6425
ltibia 17.8922
lfoot -22.395 13.4874
ltoes -13.5941
211
root -12.7514 17.5093 11.4789 -136.33 87.5991 -138.155
lowerback 1.25175 -3.01352 4.27875
upperback -0.344077 -3.95193 -0.494204
thorax -1.37903 -2.01104 -2.79298
lowerneck -2.62372 2.8972 -3.79837
upperneck -4.24652 4.05935 2.63706
head -1.01366 2.08304 1.44945
rclavicle 8.02593e-014 2.38542e-015
rhumerus -36.3383 -10.9396 -85.1262
rradius 24.5154
rwrist 33.3913
rhand 12.0796 -20.4695
rfingers 7.12502
rthumb 37.096 -46.5091
lclavicle 8.02593e-014 2.38542e-015
lhumerus -29.1005 12.7337 85.5893
lradius 34.659
lwrist -12.6557
lhand -7.82424 12.6005
lfingers 7.12502
lthumb 18.0779 41.7803
rfemur -20.9943 -5.80781 22.0038
rtibia 42.4857
rfoot -13.1193 -11.6506
rtoes -22.7455
lfemur -2.49113 -1.14568 -20.9488
ltibia 17.4112
lfoot -22.9007 13.4285
ltoes -13.6519
212
root -12.5576 17.5017 11.4592 -142.434 87.4311 -144.351
lowerback 0.929131 -3.08841 4.25338
upperback -0.273528 -4.06893 -0.517439
thorax -1.13508 -2.0634 -2.82001
lowerneck -2.65878 2.82226 -3.81421
upperneck -4.21341 3.96358 2.7399
head -0.996964 2.0348 1.48626
rclavicle 1.166e-014 3.77691e-015
rhumerus -36.883 -10.9645 -84.8826
rradius 24.4077
rwrist 33.9063
rhand 11.4333 -20.1593
rfingers 7.12502
rthumb 36.4845 -46.3553
lclavicle 1.166e-014 3.77691e-015
lhumerus -28.4255 11.9006 85.952
lradius 35.0465
lwrist -12.203
lhand -7.52121 12.5769
lfingers 7.12502
lthumb 18.3695 41.7296
rfemur -21.7335 -6.17919 21.9484
rtibia 40.1478
rfoot -14.0972 -11.7671
rtoes -22.3465
lfemur -1.60234 -1.28537 -21.1415
ltibia 16.8874
lfoot -23.3806 13.3464
ltoes -13.5035
213
root -12.3666 17.4953 11.4396 -143.028 87.2596 -145.143
lowerback 0.547416 -3.09878 4.41268
upperback -0.224643 -4.09984 -0.499356
thorax -0.883432 -2.07358 -2.91354
lowerneck -2.75947 2.70891 -3.87396
upperneck -4.15314 3.82171 2.91555
head -0.961615 1.96422 1.55539
rclavicle -3.55017e-014 -8.15017e-015
rhumerus -37.3922 -10.8401 -84.747
rradius 24.3592
rwrist 34.1247
rhand 11.9106 -19.7408
rfingers 7.12502
rthumb 36.9362 -45.8217
lclavicle -3.55017e-014 -8.15017e-015
lhumerus -27.7271 11.124 86.289
lradius 35.311
lwrist -11.8214
lhand -7.52986 12.3219
lfingers 7.12502
lthumb 18.3612 41.4754
rfemur -22.5962 -6.54791 22.1232
rtibia 37.656
rfoot -14.5772 -11.471
rtoes -22.4662
lfemur -0.741002 -1.49551 -21.1557
ltibia 16.1578
lfoot -23.5195 13.45
ltoes -13.6946
214
root -12.1856 17.4832 11.425 -146.583 87.0382 -149.037
lowerback 0.19156 -3.1368 4.38188
upperback -0.260954 -4.16684 -0.476214
thorax -0.723153 -2.10404 -2.89127
lowerneck -2.7829 2.61849 -3.90723
upperneck -4.15852 3.70739 3.05326
head -0.959128 1.90713 1.60623
rclavicle 2.2239e-014 2.5842e-015
rhumerus -37.8531 -10.8574 -84.5509
rradius 24.3267
rwrist 33.9325
rhand 12.3618 -19.4757
rfingers 7.12502
rthumb 37.3629 -45.4455
lclavicle 2.2239e-014 2.5842e-015
lhumerus -27.0966 10.3259 86.6187
lradius 35.6446
lwrist -11.5399
lhand -7.4342 12.388
lfingers 7.12502
lthumb 18.4532 41.5328
rfemur -23.6091 -6.58612 22.1835
rtibia 35.0799
rfoot -14.8047 -11.5651
rtoes -22.3283
lfemur -0.0617204 -1.86751 -21.2605
ltibia 15.359
lfoot -23.5864 13.5329
ltoes -13.5717
215
root -11.9962 17.4782 11.4149 -147.569 86.9672 -150.212
lowerback -0.0801783 -3.13617 4.33298
upperback -0.242718 -4.17906 -0.42244
thorax -0.545689 -2.10555 -2.82608
lowerneck -2.85242 2.52337 -4.07788
upperneck -4.15195 3.59108 3.19446
head -0.947873 1.85137 1.68318
rclavicle 3.07557e-014 1.88845e-015
rhumerus -38.2487 -10.617 -84.4842
rradius 24.304
rwrist 33.3975
rhand 12.3395 -19.7437
rfingers 7.12502
rthumb 37.3417 -45.7191
lclavicle 3.07557e-014 1.88845e-015
lhumerus -26.5055 9.56604 86.9307
lradius 35.9682
lwrist -11.2318
lhand -7.26042 11.9653
lfingers 7.12502
lthumb 18.6203 41.0941
rfemur -24.4371 -6.40057 22.2436
rtibia 32.4848
rfoot -14.9158 -11.3733
rtoes -22.3734
lfemur 0.918139 -2.10043 -21.3419
ltibia 14.3604
lfoot -23.3585 13.922
ltoes -14.2795
216
root -11.8097 17.4709 11.4098 -150.751 86.8701 -153.571
lowerback -0.283685 -3.16081 4.0654
upperback -0.245309 -4.22116 -0.400453
thorax -0.41674 -2.12305 -2.66693
lowerneck -2.84839 2.46121 -3.98352
upperneck -4.16898 3.50673 3.19234
head -0.948487 1.80811 1.666
rclavicle -2.30652e-014 6.4605e-015
rhumerus -38.673 -10.4453 -84.4466
rradius 24.3018
rwrist 32.9331
rhand 12.3127 -19.9783
rfingers 7.12502
rthumb 37.3164 -45.9603
lclavicle -2.30652e-014 6.4605e-015
lhumerus -25.9686 8.48937 87.325
lradius 36.4244
lwrist -10.4326
lhand -7.62715 13.0212
lfingers 7.12502
lthumb 18.2676 42.1835
rfemur -25.2883 -5.88358 22.0979
rtibia 29.9867
rfoot -14.7138 -11.193
rtoes -21.8472
lfemur 2.01839 -2.06117 -21.5027
ltibia 13.1224
lfoot -23.1146 14.0054
ltoes -14.4721
217
root -11.6248 17.4676 11.4028 -155.474 86.7465 -158.476
lowerback -0.449669 -3.20127 3.92245
upperback -0.244689 -4.28245 -0.476832
thorax -0.323238 -2.15181 -2.67549
lowerneck -2.96101 2.37281 -4.06252
upperneck -4.13569 3.40226 3.43829
head -0.921865 1.75682 1.76138
rclavicle -2.37361e-014 -5.96354e-016
rhumerus -39.0487 -10.7129 -84.3111
rradius 24.2381
rwrist 33.0821
rhand 12.7984 -19.6483
rfingers 7.12502
rthumb 37.7755 -45.5083
lclavicle -2.37361e-014 -5.96354e-016
lhumerus -25.1617 8.62626 87.2807
lradius 36.157
lwrist -11.0748
lhand -7.5753 12.1316
lfingers 7.12502
lthumb 18.3174 41.2892
rfemur -26.2226 -5.32352 21.7883
rtibia 27.6681
rfoot -14.3388 -10.9282
rtoes -21.8553
lfemur 3.25671 -2.28726 -21.743
ltibia 11.5289
lfoot -22.7977 14.1508
ltoes -15.0868
218
root -11.4351 17.4583 11.4034 -159.204 86.657 -162.336
lowerback -0.599287 -3.21533 3.57767
upperback -0.23942 -4.30596 -0.482482
thorax -0.210812 -2.16064 -2.49955
lowerneck -3.00222 2.30884 -3.98105
upperneck -4.11219 3.31806 3.49131
head -0.903512 1.71378 1.76492
rclavicle 4.47762e-014 -7.95139e-015
rhumerus -39.4032 -10.5304 -84.3347
rradius 24.2738
rwrist 32.3791
rhand 13.1097 -19.8718
rfingers 7.12502
rthumb 38.0694 -45.6521
lclavicle 4.47762e-014 -7.95139e-015
lhumerus -24.6722 7.58313 87.5779
lradius 36.5365
lwrist -10.4734
lhand -7.86307 12.5452
lfingers 7.12502
lthumb 18.0406 41.7286
rfemur -27.1259 -4.10963 21.2747
rtibia 25.695
rfoot -14.1985 -10.819
rtoes -21.7212
lfemur 4.76771 -2.41894 -21.9294
ltibia 9.55298
lfoot -22.2507 14.1159
ltoes -15.4089
219
root -11.2451 17.4492 11.4056 -162.81 86.473 -166.084
lowerback -0.69173 -3.26728 3.22009
upperback -0.27508 -4.37586 -0.427152
thorax -0.169387 -2.19449 -2.249
lowerneck -3.03421 2.24115 -4.1962
upperneck -4.08442 3.24026 3.7329
head -0.895504 1.67686 1.88238
rclavicle 6.62947e-014 -5.66536e-015
rhumerus -39.7694 -10.9206 -83.9626
rradius 24.2044
rwrist 32.4265
rhand 13.3255 -19.7913
rfingers 7.12502
rthumb 38.2732 -45.5157
lclavicle 6.62947e-014 -5.66536e-015
lhumerus -24.5953 6.197 87.9213
lradius 37.3919
lwrist -9.49254
lhand -7.93742 12.944
lfingers 7.12502
lthumb 17.9691 42.1339
rfemur -28.2025 -3.3144 20.8113
rtibia 24.1656
rfoot -14.2455 -10.2584
rtoes -20.678
lfemur 6.57001 -2.63326 -22.0444
ltibia 6.83153
lfoot -21.506 13.8019
ltoes -14.8692
220
root -11.0526 17.4405 11.4117 -166.131 86.2969 -169.534
lowerback -0.919249 -3.33922 2.88836
upperback -0.235775 -4.47729 -0.466876
thorax 0.014092 -2.24147 -2.12201
lowerneck -3.08089 2.21432 -4.06555
upperneck -4.08555 3.20686 3.81957
head -0.885673 1.65877 1.88789
rclavicle 4.50496e-014 8.54774e-015
rhumerus -40.0688 -11.3101 -83.77
rradius 24.1692
rwrist 32.8369
rhand 13.6853 -19.7639
rfingers 7.12502
rthumb 38.6127 -45.3938
lclavicle 4.50496e-014 8.54774e-015
lhumerus -24.2038 5.68057 87.9506
lradius 37.7186
lwrist -9.41401
lhand -7.586 12.596
lfingers 7.12502
lthumb 18.3072 41.7545
rfemur -29.3592 -2.40307 20.3221
rtibia 23.1019
rfoot -14.5849 -9.65431
rtoes -19.093
lfemur 9.59338 -2.82787 -22.1886
ltibia 1.48659
lfoot -18.8544 13.5455
ltoes -15.4318
221
root -10.8578 17.4341 11.4193 -167.979 86.153 -171.521
lowerback -1.07275 -3.37448 2.54692
upperback -0.290666 -4.52451 -0.399311
thorax 0.0728246 -2.26432 -1.87225
lowerneck -3.01721 2.17289 -4.16554
upperneck -4.05835 3.15379 3.9492
head -0.890262 1.63192 1.94752
rclavicle 1.0107e-014 4.96962e-015
rhumerus -40.4203 -11.4855 -83.4979
rradius 24.1312
rwrist 32.8245
rhand 14.2103 -19.4082
rfingers 7.12502
rthumb 39.1078 -44.8973
lclavicle 1.0107e-014 4.96962e-015
lhumerus -23.9475 5.29889 87.998
lradius 37.8121
lwrist -9.61127
lhand -7.23237 11.7521
lfingers 7.12502
lthumb 18.6473 40.8784
rfemur -30.5674 -2.34655 20.2545
rtibia 22.4542
rfoot -15.1338 -8.27003
rtoes -18.7652
lfemur 10.8334 -2.9666 -22.2519
ltibia 4.29375e-014
lfoot -18.4849 13.4649
ltoes -14.8594
222
root -10.6629 17.4253 11.4263 -169.795 85.9182 -173.476
lowerback -1.21246 -3.42952 2.34561
upperback -0.318637 -4.59866 -0.419699
thorax 0.13263 -2.3007 -1.79027
lowerneck -3.11142 2.11474 -4.08954
upperneck -3.94576 3.07734 4.04261
head -0.835816 1.59293 1.96602
rclavicle -1.81329e-014 4.47266e-015
rhumerus -40.707 -11.756 -83.3671
rradius 24.1371
rwrist 32.5023
rhand 14.0694 -19.6728
rfingers 7.12502
rthumb 38.975 -45.2
lclavicle -1.81329e-014 4.47266e-015
lhumerus -23.6731 4.88337 88.0109
lradius 38.0418
lwrist -9.57735
lhand -7.10223 11.6141
lfingers 7.12502
lthumb 18.7725 40.7282
rfemur -31.7489 -2.38111 20.1911
rtibia 22.1146
rfoot -16.1663 -6.90764
rtoes -18.0876
lfemur 11.3743 -3.19285 -22.3033
ltibia -4.77083e-015
lfoot -18.7854 13.3452
ltoes -15.175
223
root -10.4671 17.41 11.4336 -172.161 85.6785 -175.974
lowerback -1.34039 -3.4834 2.01208
upperback -0.392659 -4.66802 -0.420786
thorax 0.15149 -2.33541 -1.61321
lowerneck -3.01174 2.06648 -4.02783
upperneck -3.91618 3.00835 4.1156
head -0.840715 1.55581 1.97787
rclavicle -2.60905e-014 6.95746e-015
rhumerus -41.0688 -12.5 -82.8766
rradius 24.055
rwrist 33.3021
rhand 14.432 -19.3271
rfingers 7.12502
rthumb 39.3167 -44.7557
lclavicle -2.60905e-014 6.95746e-015
lhumerus -23.5946 4.35585 88.0603
lradius 38.4078
lwrist -9.53589
lhand -7.1061 11.5383
lfingers 7.12502
lthumb 18.7688 40.6528
rfemur -32.7259 -2.42152 20.0488
rtibia 21.865
rfoot -16.7465 -5.95867
rtoes -18.5493
lfemur 11.9339 -3.42892 -22.4037
ltibia -1.90833e-014
lfoot -19.1236 13.5337
ltoes -15.5348
